{
  "accessors": [
    {
      "bufferView": 2,
      "componentType": 5126,
      "count": 919,
      "max": [
        27.86811065673828,
        2.1482889652252197,
        156.7985382080078
      ],
      "min": [
        -27.868186950683594,
        -16.2497501373291,
        64.9895248413086
      ],
      "type": "VEC3"
    },
    {
      "bufferView": 2,
      "byteOffset": 11028,
      "componentType": 5126,
      "count": 919,
      "max": [
        0.9963750243186951,
        0.999678909778595,
        0.99586421251297
      ],
      "min": [
        -0.9963750243186951,
        -0.9997819066047668,
        -0.9983263611793518
      ],
      "type": "VEC3"
    },
    {
      "bufferView": 1,
      "componentType": 5126,
      "count": 919,
      "max": [
        0.9818000197410583,
        0.993399977684021
      ],
      "min": [
        0.018200000748038292,
        0.33959999680519104
      ],
      "type": "VEC2"
    },
    {
      "bufferView": 0,
      "componentType": 5125,
      "count": 4176,
      "type": "SCALAR"
    },
    {
      "bufferView": 2,
      "byteOffset": 22056,
      "componentType": 5126,
      "count": 8993,
      "max": [
        27.511260986328125,
        4.590784072875977,
        138.20751953125
      ],
      "min": [
        -27.281471252441406,
        -16.45807456970215,
        79.49893951416016
      ],
      "type": "VEC3"
    },
    {
      "bufferView": 2,
      "byteOffset": 129972,
      "componentType": 5126,
      "count": 8993,
      "max": [
        0.9999502301216125,
        0.9999821186065674,
        0.966826856136322
      ],
      "min": [
        -0.9997793436050415,
        -0.9999932646751404,
        -0.9988844990730286
      ],
      "type": "VEC3"
    },
    {
      "bufferView": 3,
      "componentType": 5126,
      "count": 8993,
      "max": [
        0.9996949434280396,
        0.999523937702179,
        0.9999896287918091,
        1.0
      ],
      "min": [
        -0.9999890923500061,
        -0.9998616576194763,
        -0.9992979764938354,
        -1.0
      ],
      "type": "VEC4"
    },
    {
      "bufferView": 1,
      "byteOffset": 7352,
      "componentType": 5126,
      "count": 8993,
      "max": [
        1.0,
        0.8872950077056885
      ],
      "min": [
        0.0,
        0.0
      ],
      "type": "VEC2"
    },
    {
      "bufferView": 0,
      "byteOffset": 16704,
      "componentType": 5125,
      "count": 51174,
      "type": "SCALAR"
    }
  ],
  "asset": {
    "extras": {
      "author": "kanesk06 (https://sketchfab.com/kanesk06)",
      "license": "CC-BY-4.0 (http://creativecommons.org/licenses/by/4.0/)",
      "source": "https://sketchfab.com/3d-models/womens-long-sleeve-mockup-asset-98ffbaaebae14d00a9917fe9cb277b18",
      "title": "Women's Long Sleeve - Mockup Asset"
    },
    "generator": "Sketchfab-15.32.0",
    "version": "2.0"
  },
  "bufferViews": [
    {
      "buffer": 0,
      "byteLength": 221400,
      "name": "floatBufferViews",
      "target": 34963
    },
    {
      "buffer": 0,
      "byteLength": 79296,
      "byteOffset": 221400,
      "byteStride": 8,
      "name": "floatBufferViews",
      "target": 34962
    },
    {
      "buffer": 0,
      "byteLength": 237888,
      "byteOffset": 300696,
      "byteStride": 12,
      "name": "floatBufferViews",
      "target": 34962
    },
    {
      "buffer": 0,
      "byteLength": 143888,
      "byteOffset": 538584,
      "byteStride": 16,
      "name": "floatBufferViews",
      "target": 34962
    }
  ],
  "buffers": [
    {
      "byteLength": 682472,
      "uri": "scene.bin"
    }
  ],
  "extensionsUsed": [
    "KHR_materials_specular"
  ],
  "images": [
    {
      "uri": "textures/blinn5SG_baseColor.png"
    },
    {
      "uri": "textures/blinn5SG_metallicRoughness.png"
    },
    {
      "uri": "textures/blinn5SG_normal.png"
    }
  ],
  "materials": [
    {
      "doubleSided": true,
      "extensions": {
        "KHR_materials_specular": {
          "specularColorFactor": [
            1.0,
            1.0,
            1.0
          ],
          "specularFactor": 0.0
        }
      },
      "name": "blinn4SG",
      "pbrMetallicRoughness": {
        "baseColorFactor": [
          0.0,
          0.0,
          0.0,
          1.0
        ],
        "metallicFactor": 0.0
      }
    },
    {
      "doubleSided": true,
      "name": "blinn5SG",
      "normalTexture": {
        "index": 2
      },
      "occlusionTexture": {
        "index": 1
      },
      "pbrMetallicRoughness": {
        "baseColorTexture": {
          "index": 0
        },
        "metallicRoughnessTexture": {
          "index": 1
        }
      }
    }
  ],
  "meshes": [
    {
      "name": "Object_0",
      "primitives": [
        {
          "attributes": {
            "NORMAL": 1,
            "POSITION": 0,
            "TEXCOORD_0": 2
          },
          "indices": 3,
          "material": 0,
          "mode": 4
        }
      ]
    },
    {
      "name": "Object_1",
      "primitives": [
        {
          "attributes": {
            "NORMAL": 5,
            "POSITION": 4,
            "TANGENT": 6,
            "TEXCOORD_0": 7
          },
          "indices": 8,
          "material": 1,
          "mode": 4
        }
      ]
    }
  ],
  "nodes": [
    {
      "children": [
        1
      ],
      "matrix": [
        1.0,
        0.0,
        0.0,
        0.0,
        0.0,
        2.220446049250313e-16,
        -1.0,
        0.0,
        0.0,
        1.0,
        2.220446049250313e-16,
        0.0,
        0.0,
        0.0,
        0.0,
        1.0
      ],
      "name": "Sketchfab_model"
    },
    {
      "children": [
        2,
        3
      ],
      "name": "female long sleeve upload.obj.cleaner.materialmerger.gles"
    },
    {
      "mesh": 0,
      "name": "Object_2"
    },
    {
      "mesh": 1,
      "name": "Object_3"
    }
  ],
  "samplers": [
    {
      "magFilter": 9729,
      "minFilter": 9987,
      "wrapS": 10497,
      "wrapT": 10497
    }
  ],
  "scene": 0,
  "scenes": [
    {
      "name": "Sketchfab_Scene",
      "nodes": [
        0
      ]
    }
  ],
  "textures": [
    {
      "sampler": 0,
      "source": 0
    },
    {
      "sampler": 0,
      "source": 1
    },
    {
      "sampler": 0,
      "source": 2
    }
  ]
}
