{
  "accessors": [
    {
      "bufferView": 2,
      "componentType": 5126,
      "count": 65532,
      "max": [
        241.34779357910156,
        1682.9354248046875,
        155.27578735351563
      ],
      "min": [
        -299.4958801269531,
        997.6969604492188,
        -146.7927703857422
      ],
      "type": "VEC3"
    },
    {
      "bufferView": 2,
      "byteOffset": 786384,
      "componentType": 5126,
      "count": 65532,
      "max": [
        0.999983012676239,
        0.9999074935913086,
        0.9999969005584717
      ],
      "min": [
        -0.999971330165863,
        -0.9999750256538391,
        -0.9999969005584717
      ],
      "type": "VEC3"
    },
    {
      "bufferView": 3,
      "componentType": 5126,
      "count": 65532,
      "max": [
        0.9999879598617554,
        0.9997815489768982,
        0.9999993443489075,
        1.0
      ],
      "min": [
        -0.9999982714653015,
        -0.996819794178009,
        -0.9999994039535522,
        -1.0
      ],
      "type": "VEC4"
    },
    {
      "bufferView": 1,
      "componentType": 5126,
      "count": 65532,
      "max": [
        0.999755859375,
        0.7587069869041443
      ],
      "min": [
        0.000244140625,
        0.00024425741867162287
      ],
      "type": "VEC2"
    },
    {
      "bufferView": 0,
      "componentType": 5125,
      "count": 359739,
      "type": "SCALAR"
    },
    {
      "bufferView": 2,
      "byteOffset": 1572768,
      "componentType": 5126,
      "count": 65532,
      "max": [
        300.7801513671875,
        1683.098876953125,
        155.26283264160156
      ],
      "min": [
        -245.19105529785156,
        1026.835693359375,
        -146.73329162597656
      ],
      "type": "VEC3"
    },
    {
      "bufferView": 2,
      "byteOffset": 2359152,
      "componentType": 5126,
      "count": 65532,
      "max": [
        0.9999883770942688,
        0.9988875389099121,
        0.9999861121177673
      ],
      "min": [
        -0.9999929070472717,
        -0.9999398589134216,
        -0.9999861121177673
      ],
      "type": "VEC3"
    },
    {
      "bufferView": 3,
      "byteOffset": 1048512,
      "componentType": 5126,
      "count": 65532,
      "max": [
        0.9999879598617554,
        0.9997352361679077,
        0.9999946355819702,
        1.0
      ],
      "min": [
        -0.9999997615814209,
        -0.9953647255897522,
        -0.9999869465827942,
        -1.0
      ],
      "type": "VEC4"
    },
    {
      "bufferView": 1,
      "byteOffset": 524256,
      "componentType": 5126,
      "count": 65532,
      "max": [
        0.9996946454048157,
        0.7876964211463928
      ],
      "min": [
        0.000244140625,
        0.000244140625
      ],
      "type": "VEC2"
    },
    {
      "bufferView": 0,
      "byteOffset": 1438956,
      "componentType": 5125,
      "count": 348987,
      "type": "SCALAR"
    },
    {
      "bufferView": 2,
      "byteOffset": 3145536,
      "componentType": 5126,
      "count": 22391,
      "max": [
        285.6454772949219,
        1705.041015625,
        119.28074645996094
      ],
      "min": [
        -299.9953308105469,
        1001.6072998046875,
        -117.22425842285156
      ],
      "type": "VEC3"
    },
    {
      "bufferView": 2,
      "byteOffset": 3414228,
      "componentType": 5126,
      "count": 22391,
      "max": [
        0.9999933838844299,
        0.999984622001648,
        0.9999972581863403
      ],
      "min": [
        -0.9999674558639526,
        -0.9999686479568481,
        -0.9999972581863403
      ],
      "type": "VEC3"
    },
    {
      "bufferView": 3,
      "byteOffset": 2097024,
      "componentType": 5126,
      "count": 22391,
      "max": [
        0.9999901652336121,
        0.9965118169784546,
        0.9999980926513672,
        1.0
      ],
      "min": [
        -0.9999982118606567,
        -0.9920996427536011,
        -0.9999958872795105,
        -1.0
      ],
      "type": "VEC4"
    },
    {
      "bufferView": 1,
      "byteOffset": 1048512,
      "componentType": 5126,
      "count": 22391,
      "max": [
        0.999755859375,
        0.928520679473877
      ],
      "min": [
        0.000244140625,
        0.00024852927890606225
      ],
      "type": "VEC2"
    },
    {
      "bufferView": 0,
      "byteOffset": 2834904,
      "componentType": 5125,
      "count": 121314,
      "type": "SCALAR"
    }
  ],
  "asset": {
    "extras": {
      "author": "erebus3d (https://sketchfab.com/erebus3d)",
      "license": "CC-BY-4.0 (http://creativecommons.org/licenses/by/4.0/)",
      "source": "https://sketchfab.com/3d-models/oversize-t-shirt-free-679118b2f75548daaff9910f1aad90bc",
      "title": "Oversize T-Shirt (FREE)"
    },
    "generator": "Sketchfab-15.44.0",
    "version": "2.0"
  },
  "bufferViews": [
    {
      "buffer": 0,
      "byteLength": 3320160,
      "name": "floatBufferViews",
      "target": 34963
    },
    {
      "buffer": 0,
      "byteLength": 1227640,
      "byteOffset": 3320160,
      "byteStride": 8,
      "name": "floatBufferViews",
      "target": 34962
    },
    {
      "buffer": 0,
      "byteLength": 3682920,
      "byteOffset": 4547800,
      "byteStride": 12,
      "name": "floatBufferViews",
      "target": 34962
    },
    {
      "buffer": 0,
      "byteLength": 2455280,
      "byteOffset": 8230720,
      "byteStride": 16,
      "name": "floatBufferViews",
      "target": 34962
    }
  ],
  "buffers": [
    {
      "byteLength": 10686000,
      "uri": "scene.bin"
    }
  ],
  "extensionsUsed": [
    "KHR_materials_specular"
  ],
  "images": [
    {
      "uri": "textures/tshirtFABRIC1_baseColor.jpeg"
    },
    {
      "uri": "textures/tshirtFABRIC1_metallicRoughness.png"
    },
    {
      "uri": "textures/tshirtFABRIC1_normal.png"
    },
    {
      "uri": "textures/tshirtFABRIC1_specularf0.png"
    }
  ],
  "materials": [
    {
      "doubleSided": true,
      "extensions": {
        "KHR_materials_specular": {
          "specularColorFactor": [
            1.0,
            1.0,
            1.0
          ],
          "specularFactor": 1.0,
          "specularTexture": {
            "index": 3
          }
        }
      },
      "name": "tshirtFABRIC1",
      "normalTexture": {
        "index": 2
      },
      "occlusionTexture": {
        "index": 1
      },
      "pbrMetallicRoughness": {
        "baseColorTexture": {
          "index": 0
        },
        "metallicRoughnessTexture": {
          "index": 1
        },
        "roughnessFactor": 0.7
      }
    }
  ],
  "meshes": [
    {
      "name": "tshirt:Mesh_tshirt:FABRIC1_0",
      "primitives": [
        {
          "attributes": {
            "NORMAL": 1,
            "POSITION": 0,
            "TANGENT": 2,
            "TEXCOORD_0": 3
          },
          "indices": 4,
          "material": 0,
          "mode": 4
        }
      ]
    },
    {
      "name": "tshirt:Mesh_tshirt:FABRIC1_0",
      "primitives": [
        {
          "attributes": {
            "NORMAL": 6,
            "POSITION": 5,
            "TANGENT": 7,
            "TEXCOORD_0": 8
          },
          "indices": 9,
          "material": 0,
          "mode": 4
        }
      ]
    },
    {
      "name": "tshirt:Mesh_tshirt:FABRIC1_0",
      "primitives": [
        {
          "attributes": {
            "NORMAL": 11,
            "POSITION": 10,
            "TANGENT": 12,
            "TEXCOORD_0": 13
          },
          "indices": 14,
          "material": 0,
          "mode": 4
        }
      ]
    }
  ],
  "nodes": [
    {
      "children": [
        1
      ],
      "matrix": [
        0.061728086322546005,
        0.0,
        0.0,
        0.0,
        0.0,
        1.3706388540267956e-17,
        -0.061728086322546005,
        0.0,
        0.0,
        0.061728086322546005,
        1.3706388540267956e-17,
        0.0,
        0.0,
        0.0,
        0.0,
        1.0
      ],
      "name": "Sketchfab_model"
    },
    {
      "children": [
        2
      ],
      "matrix": [
        0.009999999776482582,
        0.0,
        0.0,
        0.0,
        0.0,
        0.0,
        0.009999999776482582,
        0.0,
        0.0,
        -0.009999999776482582,
        0.0,
        0.0,
        0.0,
        0.0,
        0.0,
        1.0
      ],
      "name": "0c1d833a2d764972ae09f0e1b1ab3c89.fbx"
    },
    {
      "children": [
        3
      ],
      "name": "RootNode"
    },
    {
      "children": [
        4,
        5,
        6
      ],
      "name": "tshirt:Mesh"
    },
    {
      "mesh": 0,
      "name": "tshirt:Mesh_tshirt:FABRIC1_0"
    },
    {
      "mesh": 1,
      "name": "tshirt:Mesh_tshirt:FABRIC1_0"
    },
    {
      "mesh": 2,
      "name": "tshirt:Mesh_tshirt:FABRIC1_0"
    }
  ],
  "samplers": [
    {
      "magFilter": 9729,
      "minFilter": 9987,
      "wrapS": 10497,
      "wrapT": 10497
    }
  ],
  "scene": 0,
  "scenes": [
    {
      "name": "Sketchfab_Scene",
      "nodes": [
        0
      ]
    }
  ],
  "textures": [
    {
      "sampler": 0,
      "source": 0
    },
    {
      "sampler": 0,
      "source": 1
    },
    {
      "sampler": 0,
      "source": 2
    },
    {
      "sampler": 0,
      "source": 3
    }
  ]
}
