{
  "accessors": [
    {
      "bufferView": 1,
      "componentType": 5126,
      "count": 65532,
      "max": [
        2.102802038192749,
        0.2518292963504791,
        1.7743340730667114
      ],
      "min": [
        -2.135241746902466,
        -1.2082048654556274,
        -5.461866855621338
      ],
      "type": "VEC3"
    },
    {
      "bufferView": 1,
      "byteOffset": 786384,
      "componentType": 5126,
      "count": 65532,
      "max": [
        0.9999943971633911,
        0.9999852180480957,
        0.9998044967651367
      ],
      "min": [
        -0.9999920129776001,
        -0.9999911189079285,
        -0.9999923706054688
      ],
      "type": "VEC3"
    },
    {
      "bufferView": 0,
      "componentType": 5125,
      "count": 321651,
      "type": "SCALAR"
    },
    {
      "bufferView": 1,
      "byteOffset": 1572768,
      "componentType": 5126,
      "count": 65532,
      "max": [
        2.015697717666626,
        0.2939116954803467,
        1.8268041610717773
      ],
      "min": [
        -2.1341772079467773,
        -1.209195613861084,
        -5.460690975189209
      ],
      "type": "VEC3"
    },
    {
      "bufferView": 1,
      "byteOffset": 2359152,
      "componentType": 5126,
      "count": 65532,
      "max": [
        0.9998992681503296,
        0.9999914169311523,
        0.9995154738426208
      ],
      "min": [
        -0.9999995827674866,
        -0.9999616742134094,
        -0.9999925494194031
      ],
      "type": "VEC3"
    },
    {
      "bufferView": 0,
      "byteOffset": 1286604,
      "componentType": 5125,
      "count": 324897,
      "type": "SCALAR"
    },
    {
      "bufferView": 1,
      "byteOffset": 3145536,
      "componentType": 5126,
      "count": 65532,
      "max": [
        2.13434100151062,
        0.29484742879867554,
        1.838802456855774
      ],
      "min": [
        -2.131929874420166,
        -1.1793979406356812,
        -5.4691877365112305
      ],
      "type": "VEC3"
    },
    {
      "bufferView": 1,
      "byteOffset": 3931920,
      "componentType": 5126,
      "count": 65532,
      "max": [
        0.9999956488609314,
        0.9999955892562866,
        0.99789959192276
      ],
      "min": [
        -0.9999799728393555,
        -0.9998749494552612,
        -0.9999930262565613
      ],
      "type": "VEC3"
    },
    {
      "bufferView": 0,
      "byteOffset": 2586192,
      "componentType": 5125,
      "count": 325755,
      "type": "SCALAR"
    },
    {
      "bufferView": 1,
      "byteOffset": 4718304,
      "componentType": 5126,
      "count": 65532,
      "max": [
        2.135143280029297,
        0.2949955463409424,
        1.8406572341918945
      ],
      "min": [
        -2.1353347301483154,
        -1.2093278169631958,
        -5.46793794631958
      ],
      "type": "VEC3"
    },
    {
      "bufferView": 1,
      "byteOffset": 5504688,
      "componentType": 5126,
      "count": 65532,
      "max": [
        0.9999956488609314,
        0.9999914169311523,
        0.9998549222946167
      ],
      "min": [
        -0.9999948740005493,
        -0.9999825954437256,
        -0.9999837875366211
      ],
      "type": "VEC3"
    },
    {
      "bufferView": 0,
      "byteOffset": 3889212,
      "componentType": 5125,
      "count": 309882,
      "type": "SCALAR"
    },
    {
      "bufferView": 1,
      "byteOffset": 6291072,
      "componentType": 5126,
      "count": 58502,
      "max": [
        2.13434100151062,
        0.29498380422592163,
        1.8410778045654297
      ],
      "min": [
        -2.1308107376098633,
        -1.208565592765808,
        -5.46912956237793
      ],
      "type": "VEC3"
    },
    {
      "bufferView": 1,
      "byteOffset": 6993096,
      "componentType": 5126,
      "count": 58502,
      "max": [
        0.9999810457229614,
        0.9999852180480957,
        0.9999505877494812
      ],
      "min": [
        -0.9999920129776001,
        -0.999941885471344,
        -0.9999923706054688
      ],
      "type": "VEC3"
    },
    {
      "bufferView": 0,
      "byteOffset": 5128740,
      "componentType": 5125,
      "count": 144765,
      "type": "SCALAR"
    }
  ],
  "asset": {
    "extras": {
      "author": "Mandrake (https://sketchfab.com/mandrake_3d)",
      "license": "CC-BY-4.0 (http://creativecommons.org/licenses/by/4.0/)",
      "source": "https://sketchfab.com/3d-models/male-body-base-mesh-highpoly-9311f4f8fa1a4fe4bb0027ff7e8fd795",
      "title": "Male body base mesh (highpoly)"
    },
    "generator": "Sketchfab-12.68.0",
    "version": "2.0"
  },
  "bufferViews": [
    {
      "buffer": 0,
      "byteLength": 5707800,
      "name": "floatBufferViews",
      "target": 34963
    },
    {
      "buffer": 0,
      "byteLength": 7695120,
      "byteOffset": 5707800,
      "byteStride": 12,
      "name": "floatBufferViews",
      "target": 34962
    }
  ],
  "buffers": [
    {
      "byteLength": 13402920,
      "uri": "scene.bin"
    }
  ],
  "materials": [
    {
      "doubleSided": true,
      "name": "material_0",
      "pbrMetallicRoughness": {
        "metallicFactor": 0.0,
        "roughnessFactor": 0.6
      }
    }
  ],
  "meshes": [
    {
      "name": "Object_0",
      "primitives": [
        {
          "attributes": {
            "NORMAL": 1,
            "POSITION": 0
          },
          "indices": 2,
          "material": 0,
          "mode": 4
        }
      ]
    },
    {
      "name": "Object_1",
      "primitives": [
        {
          "attributes": {
            "NORMAL": 4,
            "POSITION": 3
          },
          "indices": 5,
          "material": 0,
          "mode": 4
        }
      ]
    },
    {
      "name": "Object_2",
      "primitives": [
        {
          "attributes": {
            "NORMAL": 7,
            "POSITION": 6
          },
          "indices": 8,
          "material": 0,
          "mode": 4
        }
      ]
    },
    {
      "name": "Object_3",
      "primitives": [
        {
          "attributes": {
            "NORMAL": 10,
            "POSITION": 9
          },
          "indices": 11,
          "material": 0,
          "mode": 4
        }
      ]
    },
    {
      "name": "Object_4",
      "primitives": [
        {
          "attributes": {
            "NORMAL": 13,
            "POSITION": 12
          },
          "indices": 14,
          "material": 0,
          "mode": 4
        }
      ]
    }
  ],
  "nodes": [
    {
      "children": [
        1
      ],
      "matrix": [
        1.0,
        0.0,
        0.0,
        0.0,
        0.0,
        2.220446049250313e-16,
        -1.0,
        0.0,
        0.0,
        1.0,
        2.220446049250313e-16,
        0.0,
        0.0,
        0.0,
        0.0,
        1.0
      ],
      "name": "Sketchfab_model"
    },
    {
      "children": [
        2,
        3,
        4,
        5,
        6
      ],
      "name": "main1.obj.cleaner.materialmerger.gles"
    },
    {
      "mesh": 0,
      "name": "Object_2"
    },
    {
      "mesh": 1,
      "name": "Object_3"
    },
    {
      "mesh": 2,
      "name": "Object_4"
    },
    {
      "mesh": 3,
      "name": "Object_5"
    },
    {
      "mesh": 4,
      "name": "Object_6"
    }
  ],
  "scene": 0,
  "scenes": [
    {
      "name": "Sketchfab_Scene",
      "nodes": [
        0
      ]
    }
  ]
}
