{
  "accessors": [
    {
      "bufferView": 2,
      "componentType": 5126,
      "count": 65532,
      "max": [
        0.46041426062583923,
        0.1928825080394745,
        0.49825501441955566
      ],
      "min": [
        -0.1128261461853981,
        -0.19614140689373016,
        -0.4999065101146698
      ],
      "type": "VEC3"
    },
    {
      "bufferView": 2,
      "byteOffset": 786384,
      "componentType": 5126,
      "count": 65532,
      "max": [
        0.9999986886978149,
        0.9999993443489075,
        0.9959696531295776
      ],
      "min": [
        -0.999197244644165,
        -0.9999996423721313,
        -0.9999926686286926
      ],
      "type": "VEC3"
    },
    {
      "bufferView": 1,
      "componentType": 5126,
      "count": 65532,
      "max": [
        0.9702532291412354,
        0.9994792938232422
      ],
      "min": [
        0.00307287136092782,
        0.0025428403168916702
      ],
      "type": "VEC2"
    },
    {
      "bufferView": 0,
      "componentType": 5125,
      "count": 197226,
      "type": "SCALAR"
    },
    {
      "bufferView": 2,
      "byteOffset": 1572768,
      "componentType": 5126,
      "count": 65532,
      "max": [
        0.36639219522476196,
        0.19354501366615295,
        0.4981628358364105
      ],
      "min": [
        -0.45872366428375244,
        -0.1955496072769165,
        -0.499794602394104
      ],
      "type": "VEC3"
    },
    {
      "bufferView": 2,
      "byteOffset": 2359152,
      "componentType": 5126,
      "count": 65532,
      "max": [
        0.9961854219436646,
        0.9999993443489075,
        0.9603850841522217
      ],
      "min": [
        -0.9999822974205017,
        -0.999729335308075,
        -0.9999946355819702
      ],
      "type": "VEC3"
    },
    {
      "bufferView": 1,
      "byteOffset": 524256,
      "componentType": 5126,
      "count": 65532,
      "max": [
        0.9995611310005188,
        0.998659610748291
      ],
      "min": [
        0.00043898163130506873,
        0.00044685608008876443
      ],
      "type": "VEC2"
    },
    {
      "bufferView": 0,
      "byteOffset": 788904,
      "componentType": 5125,
      "count": 191541,
      "type": "SCALAR"
    },
    {
      "bufferView": 2,
      "byteOffset": 3145536,
      "componentType": 5126,
      "count": 42766,
      "max": [
        0.46041426062583923,
        0.1873510181903839,
        0.4981996417045593
      ],
      "min": [
        -0.4561622142791748,
        -0.19020318984985352,
        -0.4987753927707672
      ],
      "type": "VEC3"
    },
    {
      "bufferView": 2,
      "byteOffset": 3658728,
      "componentType": 5126,
      "count": 42766,
      "max": [
        0.9999964237213135,
        0.9999253749847412,
        0.9989784955978394
      ],
      "min": [
        -0.9931284189224243,
        -0.9999942779541016,
        -0.9986048936843872
      ],
      "type": "VEC3"
    },
    {
      "bufferView": 1,
      "byteOffset": 1048512,
      "componentType": 5126,
      "count": 42766,
      "max": [
        0.9995611310005188,
        0.9905692934989929
      ],
      "min": [
        0.009218613617122173,
        0.004060669802129269
      ],
      "type": "VEC2"
    },
    {
      "bufferView": 0,
      "byteOffset": 1555068,
      "componentType": 5125,
      "count": 122181,
      "type": "SCALAR"
    }
  ],
  "asset": {
    "extras": {
      "author": "Mohammad Rajabloo (https://sketchfab.com/MohammadRajabloo)",
      "license": "CC-BY-4.0 (http://creativecommons.org/licenses/by/4.0/)",
      "source": "https://sketchfab.com/3d-models/t-shirt-3d-model-free-408000a9975a4c34866b42dfaca4fa75",
      "title": "T-SHIRT 3D Model Free"
    },
    "generator": "Sketchfab-16.73.0",
    "version": "2.0"
  },
  "bufferViews": [
    {
      "buffer": 0,
      "byteLength": 2043792,
      "name": "floatBufferViews",
      "target": 34963
    },
    {
      "buffer": 0,
      "byteLength": 1390640,
      "byteOffset": 2043792,
      "byteStride": 8,
      "name": "floatBufferViews",
      "target": 34962
    },
    {
      "buffer": 0,
      "byteLength": 4171920,
      "byteOffset": 3434432,
      "byteStride": 12,
      "name": "floatBufferViews",
      "target": 34962
    }
  ],
  "buffers": [
    {
      "byteLength": 7606352,
      "uri": "scene.bin"
    }
  ],
  "materials": [
    {
      "doubleSided": true,
      "name": "Material_0.004",
      "pbrMetallicRoughness": {
        "baseColorFactor": [
          0.8,
          0.8,
          0.8,
          1.0
        ],
        "metallicFactor": 0.0
      }
    }
  ],
  "meshes": [
    {
      "name": "geometry_0_Material_0.004_0",
      "primitives": [
        {
          "attributes": {
            "NORMAL": 1,
            "POSITION": 0,
            "TEXCOORD_0": 2
          },
          "indices": 3,
          "material": 0,
          "mode": 4
        }
      ]
    },
    {
      "name": "geometry_0_Material_0.004_0",
      "primitives": [
        {
          "attributes": {
            "NORMAL": 5,
            "POSITION": 4,
            "TEXCOORD_0": 6
          },
          "indices": 7,
          "material": 0,
          "mode": 4
        }
      ]
    },
    {
      "name": "geometry_0_Material_0.004_0",
      "primitives": [
        {
          "attributes": {
            "NORMAL": 9,
            "POSITION": 8,
            "TEXCOORD_0": 10
          },
          "indices": 11,
          "material": 0,
          "mode": 4
        }
      ]
    }
  ],
  "nodes": [
    {
      "children": [
        1
      ],
      "matrix": [
        1.0,
        0.0,
        0.0,
        0.0,
        0.0,
        2.220446049250313e-16,
        -1.0,
        0.0,
        0.0,
        1.0,
        2.220446049250313e-16,
        0.0,
        0.0,
        0.0,
        0.0,
        1.0
      ],
      "name": "Sketchfab_model"
    },
    {
      "children": [
        2
      ],
      "matrix": [
        0.009999999776482582,
        0.0,
        0.0,
        0.0,
        0.0,
        0.0,
        0.009999999776482582,
        0.0,
        0.0,
        -0.009999999776482582,
        0.0,
        0.0,
        0.0,
        0.0,
        0.0,
        1.0
      ],
      "name": "e30c3d0ce32d45718ed916b569880ba6.fbx"
    },
    {
      "children": [
        3
      ],
      "name": "RootNode"
    },
    {
      "children": [
        4,
        5,
        6
      ],
      "matrix": [
        100.0,
        0.0,
        0.0,
        0.0,
        0.0,
        -1.629206793918314e-05,
        -99.99999999999868,
        0.0,
        0.0,
        99.99999999999868,
        -1.629206793918314e-05,
        0.0,
        0.0,
        0.0,
        0.0,
        1.0
      ],
      "name": "geometry_0"
    },
    {
      "mesh": 0,
      "name": "geometry_0_Material_0.004_0"
    },
    {
      "mesh": 1,
      "name": "geometry_0_Material_0.004_0"
    },
    {
      "mesh": 2,
      "name": "geometry_0_Material_0.004_0"
    }
  ],
  "scene": 0,
  "scenes": [
    {
      "name": "Sketchfab_Scene",
      "nodes": [
        0
      ]
    }
  ]
}
