{
	"accessors": [
		{
			"bufferView": 2,
			"componentType": 5126,
			"count": 32102,
			"max": [
				16.957473754882813,
				38.867164611816406,
				7.802740097045898
			],
			"min": [
				-16.931665420532227,
				-0.3427729606628418,
				-8.872771263122559
			],
			"type": "VEC3"
		},
		{
			"bufferView": 2,
			"byteOffset": 385224,
			"componentType": 5126,
			"count": 32102,
			"max": [
				0.9999793767929077,
				0.9911002516746521,
				0.9999763369560242
			],
			"min": [
				-0.9999822974205017,
				-0.9999837875366211,
				-0.9999920129776001
			],
			"type": "VEC3"
		},
		{
			"bufferView": 1,
			"componentType": 5126,
			"count": 32102,
			"max": [
				2.9861931800842285,
				0.9613423943519592
			],
			"min": [
				2.090378522872925,
				0.05718135088682175
			],
			"type": "VEC2"
		},
		{
			"bufferView": 0,
			"componentType": 5125,
			"count": 183168,
			"type": "SCALAR"
		}
	],
	"asset": {
		"extras": {
			"author": "Chirag.Vijay (https://sketchfab.com/Chirag.Vijay)",
			"license": "CC-BY-4.0 (http://creativecommons.org/licenses/by/4.0/)",
			"source": "https://sketchfab.com/3d-models/t-shirt-low-poly-3e4b13a502884acfbd79cee0f9cd8876",
			"title": "T-Shirt Low Poly"
		},
		"generator": "Sketchfab-15.33.0",
		"version": "2.0"
	},
	"bufferViews": [
		{
			"buffer": 0,
			"byteLength": 732672,
			"name": "floatBufferViews",
			"target": 34963
		},
		{
			"buffer": 0,
			"byteLength": 256816,
			"byteOffset": 732672,
			"byteStride": 8,
			"name": "floatBufferViews",
			"target": 34962
		},
		{
			"buffer": 0,
			"byteLength": 770448,
			"byteOffset": 989488,
			"byteStride": 12,
			"name": "floatBufferViews",
			"target": 34962
		}
	],
	"buffers": [
		{
			"byteLength": 1759936,
			"uri": "scene.bin"
		}
	],
	"images": [
		{
			"uri": "textures/Material_baseColor.png"
		},
		{
			"uri": "textures/Material_metallicRoughness.png"
		}
	],
	"materials": [
		{
			"doubleSided": true,
			"name": "Material",
			"pbrMetallicRoughness": {
				"baseColorTexture": {
					"index": 0
				},
				"metallicRoughnessTexture": {
					"index": 1
				}
			}
		}
	],
	"meshes": [
		{
			"name": "T-Shirt_Material_0",
			"primitives": [
				{
					"attributes": {
						"NORMAL": 1,
						"POSITION": 0,
						"TEXCOORD_0": 2
					},
					"indices": 3,
					"material": 0,
					"mode": 4
				}
			]
		}
	],
	"nodes": [
		{
			"children": [
				1
			],
			"matrix": [
				1.0,
				0.0,
				0.0,
				0.0,
				0.0,
				2.220446049250313e-16,
				-1.0,
				0.0,
				0.0,
				1.0,
				2.220446049250313e-16,
				0.0,
				0.0,
				0.0,
				0.0,
				1.0
			],
			"name": "Sketchfab_model"
		},
		{
			"children": [
				2
			],
			"matrix": [
				0.009999999776482582,
				0.0,
				0.0,
				0.0,
				0.0,
				0.0,
				0.009999999776482582,
				0.0,
				0.0,
				-0.009999999776482582,
				0.0,
				0.0,
				0.0,
				0.0,
				0.0,
				1.0
			],
			"name": "e141c374ac5e4a90baea5d8c92e1e0b9.fbx"
		},
		{
			"children": [
				3
			],
			"name": "RootNode"
		},
		{
			"children": [
				4
			],
			"matrix": [
				2.691899299621582,
				0.0,
				0.0,
				0.0,
				0.0,
				2.6918992996215745,
				-2.0323274753557746e-07,
				0.0,
				0.0,
				2.0323274753557746e-07,
				2.6918992996215745,
				0.0,
				0.877833366394043,
				1.7030596733093262,
				1.5104174613952637,
				1.0
			],
			"name": "T-Shirt"
		},
		{
			"mesh": 0,
			"name": "T-Shirt_Material_0"
		}
	],
	"samplers": [
		{
			"magFilter": 9729,
			"minFilter": 9987,
			"wrapS": 10497,
			"wrapT": 10497
		}
	],
	"scene": 0,
	"scenes": [
		{
			"name": "Sketchfab_Scene",
			"nodes": [
				0
			]
		}
	],
	"textures": [
		{
			"sampler": 0,
			"source": 0
		},
		{
			"sampler": 0,
			"source": 1
		}
	]
}